<svg xmlns="http://www.w3.org/2000/svg" xmlns:xlink="http://www.w3.org/1999/xlink" viewBox="0 0 258.51 222.24"><defs><style>.cls-1{fill:none;}.cls-2{clip-path:url(#clip-path);}.cls-3{clip-path:url(#clip-path-2);}.cls-4{fill:url(#linear-gradient);}.cls-5{clip-path:url(#clip-path-3);}.cls-6{fill:url(#linear-gradient-2);}.cls-7{clip-path:url(#clip-path-4);}.cls-8{fill:url(#radial-gradient);}.cls-9{clip-path:url(#clip-path-5);}.cls-10{fill:url(#radial-gradient-2);}.cls-11{clip-path:url(#clip-path-6);}.cls-12{fill:url(#radial-gradient-3);}.cls-13{clip-path:url(#clip-path-7);}.cls-14{fill:url(#radial-gradient-4);}.cls-15{clip-path:url(#clip-path-8);}.cls-16{fill:url(#radial-gradient-5);}.cls-17{clip-path:url(#clip-path-9);}.cls-18{fill:url(#radial-gradient-6);}.cls-19{clip-path:url(#clip-path-10);}.cls-20{fill:url(#radial-gradient-7);}.cls-21{clip-path:url(#clip-path-11);}.cls-22{fill:url(#radial-gradient-8);}.cls-23{clip-path:url(#clip-path-12);}.cls-24{fill:url(#radial-gradient-9);}.cls-25{clip-path:url(#clip-path-13);}.cls-26{fill:url(#linear-gradient-3);}.cls-27{clip-path:url(#clip-path-14);}.cls-28{fill:url(#linear-gradient-4);}.cls-29{clip-path:url(#clip-path-15);}.cls-30{fill:url(#linear-gradient-5);}.cls-31{clip-path:url(#clip-path-16);}.cls-32{fill:url(#linear-gradient-6);}.cls-33{clip-path:url(#clip-path-17);}.cls-34{fill:url(#linear-gradient-7);}.cls-35{clip-path:url(#clip-path-18);}.cls-36{fill:url(#linear-gradient-8);}.cls-37{clip-path:url(#clip-path-19);}.cls-38{fill:url(#linear-gradient-9);}.cls-39{fill:#916616;}.cls-40{fill:#bb8d0b;}.cls-41{fill:#bb8d24;}.cls-42{fill:#986f00;}.cls-43{clip-path:url(#clip-path-21);}.cls-44{fill:url(#linear-gradient-10);}.cls-45{clip-path:url(#clip-path-22);}.cls-46{fill:url(#linear-gradient-11);}.cls-47{clip-path:url(#clip-path-23);}.cls-48{fill:url(#linear-gradient-12);}.cls-49,.cls-59,.cls-60,.cls-61,.cls-62{fill:#916600;}.cls-50{clip-path:url(#clip-path-25);}.cls-51{fill:url(#linear-gradient-13);}.cls-52{fill:#eacd62;}.cls-53{clip-path:url(#clip-path-27);}.cls-54{fill:url(#linear-gradient-14);}.cls-55{clip-path:url(#clip-path-29);}.cls-56{fill:url(#linear-gradient-15);}.cls-57{clip-path:url(#clip-path-30);}.cls-58{fill:url(#linear-gradient-16);}.cls-59{font-size:30.79px;}.cls-59,.cls-60,.cls-61,.cls-62{font-family:ArnoPro-Subhead, Arno Pro;}.cls-60{font-size:30.79px;}.cls-61{font-size:30.79px;}.cls-62{font-size:30.79px;}</style><clipPath id="clip-path"><rect class="cls-1" width="255.13" height="222.24"/></clipPath><clipPath id="clip-path-2"><path class="cls-1" d="M94.3,49.58,93.16,50A46.68,46.68,0,0,0,64.4,86c-.07.46-.14.93-.2,1.4a46.62,46.62,0,1,0,62.11-37.92l-1-.36a46.53,46.53,0,0,0-9-2L115.22,47a47.51,47.51,0,0,0-4.78-.24A46.49,46.49,0,0,0,94.3,49.58"/></clipPath><linearGradient id="linear-gradient" x1="-170.08" y1="558.44" x2="-169.08" y2="558.44" gradientTransform="matrix(0, 93.24, 93.24, 0, -51959.83, 15905.38)" gradientUnits="userSpaceOnUse"><stop offset="0" stop-color="#d2a93f"/><stop offset="1" stop-color="#916616"/></linearGradient><clipPath id="clip-path-3"><path class="cls-1" d="M65.75,93.33a44.7,44.7,0,1,0,44.7-44.69,44.7,44.7,0,0,0-44.7,44.69"/></clipPath><linearGradient id="linear-gradient-2" x1="-170.08" y1="558.44" x2="-169.08" y2="558.44" gradientTransform="matrix(0, 89.4, 89.4, 0, -49811.14, 15252.88)" gradientUnits="userSpaceOnUse"><stop offset="0" stop-color="#f6ea92"/><stop offset="0.11" stop-color="#eddc7d"/><stop offset="0.4" stop-color="#d7ba4c"/><stop offset="0.66" stop-color="#c8a129"/><stop offset="0.87" stop-color="#be9213"/><stop offset="1" stop-color="#bb8d0b"/></linearGradient><clipPath id="clip-path-4"><path class="cls-1" d="M100.54,50.65l0,0A43.65,43.65,0,0,0,80.81,61l0,.06a43.8,43.8,0,0,0,29.61,76.09,44.33,44.33,0,0,0,8-.72l.78-.15a43.81,43.81,0,0,0,7.31-2.17c.52-.2,1.05-.43,1.59-.66h0a43.92,43.92,0,0,0,12.4-8.24l.35-.32h0a43.82,43.82,0,0,0-40.32-74.21"/></clipPath><radialGradient id="radial-gradient" cx="-170.08" cy="558.44" r="1" gradientTransform="matrix(68.65, 0, 0, -68.65, 11770.6, 38411.25)" gradientUnits="userSpaceOnUse"><stop offset="0" stop-color="#fff"/><stop offset="0.01" stop-color="#fff"/><stop offset="0.06" stop-color="#fffefa"/><stop offset="0.13" stop-color="#fdfbea"/><stop offset="0.21" stop-color="#fbf6d1"/><stop offset="0.29" stop-color="#f8efae"/><stop offset="0.34" stop-color="#f6ea92"/><stop offset="0.58" stop-color="#eacd62"/><stop offset="0.92" stop-color="#bb8d24"/><stop offset="1" stop-color="#bb8d24"/></radialGradient><clipPath id="clip-path-5"><polygon class="cls-1" points="104.84 65.12 104.61 65.35 104.61 65.58 104.25 65.85 104.43 66.03 104.03 66.49 104.48 66.54 104.11 67.49 104.57 66.86 104.43 67.13 104.8 67.04 104.48 68 105.62 67.81 105.3 68.14 105.48 68.41 105.81 68.32 105.67 68.96 104.57 69.37 104.89 69.28 104.99 69.6 104.16 70.1 105.22 70.47 105.76 70.29 105.44 70.6 104.8 70.66 103.79 71.52 104.99 71.34 105.16 71.06 105.71 71.11 107.82 70.83 108.14 70.56 107.64 70.38 108.28 69.92 108.32 69.47 107.36 69.37 107.59 69.05 107.18 68.73 107.45 68.64 106.77 68.04 106.54 67.35 105.62 66.99 105.98 66.81 105.85 66.67 106.26 66.35 106.5 65.76 105.22 65.85 105.39 65.67 105.25 65.58 105.85 65.25 105.76 65.07 104.84 65.12"/></clipPath><radialGradient id="radial-gradient-2" cx="-170.08" cy="558.44" r="1" gradientTransform="matrix(68.23, 0, 0, -68.23, 11700.23, 38176.31)" gradientUnits="userSpaceOnUse"><stop offset="0" stop-color="#eacd62"/><stop offset="0.21" stop-color="#debb51"/><stop offset="0.38" stop-color="#d2a93f"/><stop offset="0.53" stop-color="#c59b35"/><stop offset="0.8" stop-color="#a2781b"/><stop offset="0.96" stop-color="#8a6009"/><stop offset="1" stop-color="#8a6009"/></radialGradient><clipPath id="clip-path-6"><polygon class="cls-1" points="103.06 67.77 103.06 67.58 102.7 67.64 102.33 68 102.65 68.04 102.37 68.32 101.73 68.27 101.46 68.5 101.78 68.64 101.46 68.83 101.55 69.01 102.05 69.09 101.5 69.56 102.15 69.51 101.14 69.88 101.41 69.97 101.14 70.15 101.5 70.15 101.23 70.33 103.48 69.88 103.75 68.5 104.2 68.14 103.88 67.64 103.29 67.72 103.2 67.49 103.06 67.77"/></clipPath><radialGradient id="radial-gradient-3" cx="-170.08" cy="558.44" gradientTransform="matrix(68.3, 0, 0, -68.3, 11712.05, 38215.16)" xlink:href="#radial-gradient-2"/><clipPath id="clip-path-7"><path class="cls-1" d="M101.37,50.58l.33.88-1.16-.81A43.73,43.73,0,0,0,80.84,61l.41.84.27.09h-.23l.09.14-.57.19-.23.28.07.59.27.13-.18.19.32.27-.19.09.41-.09-.32.14.18.18-.18.09h.54l-.5.09.69.27-.36.14,1.55-.09-.27.18.41.14-.23.28.23.09.92-.09-.23-.28.45,0L85,64l.05-.46-.18-.14.69-.22L85.31,63l.37,0,0-.19.55-.13-.28-.19.41.05,0-.28L86,62.21l.64,0-.36-.37.13-.14.46,0,.28-.14L87,61.39l.32-.1h.73l0-.23h.19l.23-.32.31.09-.41.23.23.09.09-.19.6.14.23-.36.54,0,.78-.46.36-.46.69-.23-.14-.36.32.36.73,0,.27-.18L95,59.24l2.43-1-1.6-.13-1.37.23.78-.23L94.1,58l.41-.09,0-.23L96,57.54l-.82-.13L95,57.27l.09-.09,1.33.33.46.55h.41l.09-.23.41.23-.14-.37.28-.32-.46.14.36-.28-.59.09.36-.22-.91-.33-.5.23.09-.23.41-.14-1,0,1-.19-.87-.18.45,0,1-.36.73.36,1-.18.13-.23-.91-.28.27-.14,1.37.09-.87-.13.22-.23h-.41l.46-.14-.59-.18,1.1.23.14-.36-.64-.15.64-.08L99,54.39l-.37-.28,2.16-.18v-.19l-1,0,.23-.09-.14-.09.64,0-.64-.14-.59.14.64-.46-.14,0,.09-.09,1.05-.28-.37.1.24-.27,1-.23-1.24.18,0-.18,1.91-.28H100.1l2.88-.13,0-.14,1.28-.23L102.86,51h-.06a1.55,1.55,0,0,1-.68-.23,1.63,1.63,0,0,0-.66-.22h-.09"/></clipPath><radialGradient id="radial-gradient-4" cx="-170.08" cy="558.44" gradientTransform="matrix(68.26, 0, 0, -68.26, 11705.56, 38193.84)" xlink:href="#radial-gradient-2"/><clipPath id="clip-path-8"><polygon class="cls-1" points="118.2 51.89 117.01 51.57 116.92 51.67 117.11 51.76 116.79 51.67 116.92 51.84 116.1 51.8 116.7 51.84 116.37 51.94 116.7 52.03 118.02 51.99 117.11 52.12 118.99 52.31 119.72 52.21 120.27 51.84 119.12 51.8 119.25 51.67 118.48 51.8 118.57 51.62 118.34 51.57 118.2 51.89"/></clipPath><radialGradient id="radial-gradient-5" cx="-170.08" cy="558.44" gradientTransform="matrix(68.3, 0, 0, -68.3, 11712.39, 38216.29)" xlink:href="#radial-gradient-2"/><clipPath id="clip-path-9"><polygon class="cls-1" points="115.32 51.99 115.64 52.44 114.91 51.99 114.55 52.12 114.68 52.31 113.86 52.12 114.5 51.94 113.12 52.12 113.4 52.35 113.72 52.26 113.58 52.4 113.9 52.49 113.44 52.44 114.27 52.67 113.9 52.72 114.18 52.85 114.91 52.76 114.82 52.72 114.91 52.58 115.23 52.49 115.32 52.72 115.78 52.58 115.69 52.72 116.1 52.76 114.45 52.99 114.59 53.13 115.91 53.04 115 53.17 115.56 53.31 114.64 53.27 114.82 53.5 115.73 53.58 115.37 53.63 115.73 53.86 116.05 53.82 116.37 53.36 116.28 53.31 116.56 53.31 116.61 52.99 116.88 52.99 116.88 52.76 117.93 52.53 116.7 52.31 116.56 52.07 116.14 52.21 116.28 51.99 115.6 51.84 115.32 51.99"/></clipPath><radialGradient id="radial-gradient-6" cx="-170.08" cy="558.44" gradientTransform="matrix(68.27, 0, 0, -68.27, 11705.78, 38194.55)" xlink:href="#radial-gradient-2"/><clipPath id="clip-path-10"><path class="cls-1" d="M139.78,119.55v.69l-.41.41-.23-.13,0,.45-.23.13.23.24-.41.27-.1-.18,0,.55-.28-.18-.27.28.09.36-.37-.28-1.15.41-.41,1,.37,1.83-1,1.65.14,1.69,1.54-.85c1.19-.91,2.55-2.14,3.17-2.7l.34-.33-.48-2v-1l.23.37.22-.37-.31-1.91-.46-.64Z"/></clipPath><radialGradient id="radial-gradient-7" cx="-170.08" cy="558.44" gradientTransform="matrix(68.28, 0, 0, -68.28, 11708.93, 38205)" xlink:href="#radial-gradient-2"/><clipPath id="clip-path-11"><path class="cls-1" d="M124.33,63.1l.46-.28.82.37.32.46-.91.46Zm-2.51-6.32-.23.09,0-.36-.64.54.28-.5-.42-.09-.77.64-.87-.18.28.37-.41-.19-.56.46,0-.41-.28.32,0-.22h-.23l0,.18.23.18-.64-.18-.32.32.09.18-.59.14.55,0-.64.09.05.23-.27-.09-.33.36h.28l-.59.09-.64.5,0,.32-.45.23.32,0-.37.14.09.18-.18-.14-.1.19.14.08-.51.19.19.09-.19.18-.27,0-.64.5.23.23-1.42.41-.32.09.32.22h-.64l.09.24-.78,0,.69.19-.74.13.14,0-.14.36.78-.18.27.14.27-.27-.09.23H112l-.41.28-1,0,0,.23.28,0-.32.23.23.05,0,.27.46-.46h.41l-.73.5.32,0-.64.23h.64l-.5.54.69.28,0,.18.6,0,1-.78.37,0v-.51l.14.14.09-.27,0,.5.27.1v.46l.42.46,0,.37.6.59-.23.23.27.46-.09.14.74,0,.18-.5.87-.09.37-1,0-.64-.18-.09.22,0L116.7,65l1.32-.5-.36-.05.5-.36-.77-.55-.15.13V62.23l.5-.31,1.7-1-.23-.27.14-.37.32-.14-.14-.14,1.14-.13.69.32.18.36-.46.09-1.51,1.24-.32.27.41.82-.14.59.82.23.23.28-.13.09,2.61-.54.55-.09v.27l1,.28-1.19.14-.14.23L122,64.24l-1.19.37.14.6h.46l-.09,1-1-.59-.45.14-.37.59.19,1.37-.32-.09.23-.5-.82,1-.46.14-.09-.36h-.82l-1.83.73-.73-.45-.32.09.14-.14-1.1.37.18-.27-.59,0-.27-.37,0-.63.73-.42-.46-.22.23-.83-1.23.59-.14,1,.32.18v.32l.17.27-.17.15.23.37-.28,0,.05.37-.56-.33-.41.23.28.18-.23,0h-1l-.09.73-.18-.09v-.36l-.55.73.46.13-.86.32-.47.18-.54.14-.13.55-.83.36.14.23-1,0-.5-.28.23.82-1.19-.14-.77.23.13.55,1.6.46h-.23V74l.55.37.24.82L106.4,75l-.32,1.46-.32.18-3.93-.23-.77.55.36.54-.14.37.05.68-.64,1.7.46.18L101,81.63l1-.13.51.09.68.77.78-.45,1.51-.09,1.42-1.46-.23-.55.77-1.14,1.47-.78,0-.46.05-.64.55-.23.64.09.69.23.87-.59.78-.47.86.37.64,1.24,2.84,1.78.41,1-.32.46.23.23.69-.87,0-.32-.36-.24.13-.46.27-.18.78.55,0-.19-.32-.5L117,78.16l0-.41-.5.09-.32-.23-.78-1.14-.69-.41-.14-1,.87-.14.14.51.46-.32.92,1.37.55.09.45.31h-.31l1.46.87.18.09-.13,1,.55.59.64.55-.23.09.32.41h1l.91.55,0-.41-1-.59.28,0,0-.28.23.14-.46-.64v-.46l.59.51-.09-.23.37.23-.09-.37.32.19-.46-.37.46-.23,1.1.15.5,0-.37.46.82-.68.87,0,0-.19-.55-.23-.14-.27-.37-.46.64-1,.09-1v.4l.37-.27.05-.41.46-.54-.19-.23.23.14.82-.51.23.27h-.36l.28,0-.14.14,1.19.14-.64.5.55.18.09.46.37.13.87-.54.6,0,0-.32-1,.09-.37-.46L128,74.4l.28-.09.51.36.09-.46v.27l.41-.41,2-.51.14.14-.46.31h-.46l.5.46-1.05.69,3.16,1.88.32.6,0,.36-.69.46-1.42,0-1.14-.27-.87-.59-1.1,0-1.37.78-1.24-.19.05.27.41.15-2,.22-.23.32-.14.41.46,0v.69l.22.19-.45-.19,0,.32.55.18.19.82.64,0-.55.32.73-.14.87.51.69-.55,1.27.69,1.1-.64.59.23.32-.23v.82l.09.87-.55,1.28-.55,1.42-.69.18-.64-.18-.23-.23-.78,0-1.15.55-2.61-.69-1.32-.42-.23-.4L120.31,85l-.64.55,0,1.1-.63.32-.87-.55-1.24-.32-.41-.78-2.52-.64L113,84l.87-1-.41-.73.32-.68-.37.18-.51-.41-.64.27-2.43.05-2.42.31-2.19,1.14L103.7,83l-.64-.6-.32.14-.64,1.29-1.69,1.28-.5.91,0,1-.28.41-.22.32L97.57,89l-.36.73-.69.55-.27.82L94.82,93.3l-.23.92.51.55-.23.78.28.69-.41,1.92-.28.73L94,99.2l.68.91-.18.41v.5l.59.59.69-.18-.42.18.27.6,1.24,1.47.23,1,1,.73,1.46,1.47,1.24.54,1.92-.54,1.19,0,.78.32,2.24-1.1.51-.14.6,0,1,0,.51.41.31.32v.5l.55.45,1.51-.41.41.5.46.09.18.6-.14.87-.27.73.13.18-.13.37.36.28-.41-.05,0,.51-.32.27.36.91,1.28,1.64.64.87.18.59,0,.32.64,1.6-.14.73.46,1.46-.09,1-.88,1.19-.5,2.84,0,.63,1.83,3.49V130l.5,2.56.87,1,.95,2.81h0l.78-.15a47.85,47.85,0,0,0,7.31-2.17c.54-.21,1.07-.43,1.59-.66l.49-1.84-.28-.09.23-.32,1.37-.59.46-.55.14-1.56-.55-1.23,0-.55,1.92-1.83,1.14-.46,1.05-1.19.14-4.07-.36-.32-.27-.88.09-1.42-.46-.64.32-1.33.73-1.51.83-.86.73-1.15,2.24-1.88,1.29-1.46.82-1.28.83-2,.45-1.6.32,0-.23-.09.09-1.05-.36-.14-1,.41-3.29.83-.82-.87-.5-.09.55-.36-.23-.64-1.28-1.37-.73-.28-.23-.45-.13.23-1-2.29-.78-.69-.45-2.42-.87-.87-.14-.6.19,0-.41-.41-1.28-2.79-.55-.74-.14-.87,1.1,1.74.23-.09.28-1.15h.09l-.14,1.05h.37l1.69,2.94.68.45.5,1.1.23,1.38,1.14.91L135.73,98v.87l.68,2.06h1l.59-.51,2-.55.54-.55,1.84-.69,0-.46.46-.32,1.28-.27.41-.69.55-.14.24-.59.68-.27,0-1.05.36,0,.73-1.6-.78-.87-1.32-.5-.41-.55-.09-.59,0-.5-.23.18-1.28,1.56-1.42,0-.36-.23,0-.28,0-1-.31-.23-.19,1.1-.51-.83-.13-.73L139,88.31l-.5-.59.37-.27-.19-.23.37,0,.13-.41.5.5.28-.14,1.19,1.79,1.56.91.68.14,1.2-.5.32.19.46,1,2.88.41,2.29-.09,1,0,.83,1.14.36.09.68.74.8-.1a43.76,43.76,0,0,0-18.39-35.09l-2.75,1-.16.43-.51.23-1-.55.77-.23L132,58.3,130.33,58l.5.23,0,.68.41.22,0,.78-1.1-.46-1.14.64.73.78-1.52-.09.09-.13-.82-.28,0,.37.68.14.28.41-.37.1-1.64-.5,0-.28-.32-.31.14-.37-1.6-.83,3.71.69,1.1-.5,0-.23-.23-.37-2.93-1-1.51-.09-.46-.18.5-.09-.64-.14-.09.18-.36-.08h0l-.64.08.14-.13-.64-.18,1.14-.19-1-.27-.55.23.14-.09-.22-.09.27-.14-.46-.09Z"/></clipPath><radialGradient id="radial-gradient-8" cx="-170.08" cy="558.44" gradientTransform="matrix(68.26, 0, 0, -68.26, 11705.62, 38194.02)" xlink:href="#radial-gradient-2"/><clipPath id="clip-path-12"><polygon class="cls-1" points="124.33 63.1 125.02 64.11 125.94 63.65 125.62 63.2 124.8 62.83 124.33 63.1"/></clipPath><radialGradient id="radial-gradient-9" cx="-170.08" cy="558.44" gradientTransform="matrix(68.24, 0, 0, -68.24, 11700.55, 38177.33)" xlink:href="#radial-gradient-2"/><clipPath id="clip-path-13"><path class="cls-1" d="M166.67,51.62c-9.1,2.05-18.06,9.35-20.75,12.55s-.39,3.33-.77,6.27-4.36,6-7.56,7.81-5,2.82-4.87,4.1,3.33,3.71,3.33,3.71-.39,1.41-1,3.07-.89,2.18-.38,2.82,4.48,2.56,4.48,2.56h-3.72c-2.44,0-2.44,2.05-1.15,3.59s.77,2.3-.77,4.1-2.3,3.33-1,5.89,7.69,2.31,7.69,2.31a43.34,43.34,0,0,1,4.1,10c1,4.61,6.15,11.27,7.43,14.86s-.77,8.2-.77,8.2a58,58,0,0,0-10,17.34l-.63,1.64,43.86,2.22s12.54-27.13,11.25-29.29c-1.55-2.58-9.32-13.78-9.32-13.78l-4.13-6.44,3.46-8.83C198,95.42,203.68,89.66,202.28,74.8c-1.29-13.6-22.43-23.44-33-23.44a12.19,12.19,0,0,0-2.63.26"/></clipPath><linearGradient id="linear-gradient-3" x1="-170.08" y1="558.44" x2="-169.08" y2="558.44" gradientTransform="matrix(0, 89.61, 89.61, 0, -49875.09, 15305.65)" gradientUnits="userSpaceOnUse"><stop offset="0" stop-color="#eacd62"/><stop offset="0.08" stop-color="#eacd62"/><stop offset="0.28" stop-color="#e2c056"/><stop offset="0.54" stop-color="#d2a93f"/><stop offset="1" stop-color="#916600"/></linearGradient><clipPath id="clip-path-14"><path class="cls-1" d="M106.92,158.23c.18.88-3.49,13.3-3.61,15.56l26.59,3.39,23.72-4.69-25.69-17.91s-21.39,1.66-21,3.65"/></clipPath><linearGradient id="linear-gradient-4" x1="-170.08" y1="558.44" x2="-169.08" y2="558.44" gradientTransform="matrix(0, 87.12, 87.12, 0, -48519.9, 14938.89)" gradientUnits="userSpaceOnUse"><stop offset="0" stop-color="#eacd62"/><stop offset="0.18" stop-color="#eacd62"/><stop offset="0.48" stop-color="#d2a93f"/><stop offset="0.59" stop-color="#cca33c"/><stop offset="0.72" stop-color="#bd9332"/><stop offset="0.87" stop-color="#a37821"/><stop offset="0.96" stop-color="#916616"/><stop offset="1" stop-color="#916616"/></linearGradient><clipPath id="clip-path-15"><path class="cls-1" d="M95,123.91c.6,2.59,4.19,7.38,4.59,9s-2.6,3.39-2.6,3.39-6.38-2.39-9.77-4-6.59-5-8.78-7.18-6-5-7.18-5-1.6,1.6-.6,3,6,8.58,8,10.57a52.32,52.32,0,0,1,6.58,9c1.6,2.79,4.59,3.59,11.57,6s7.78,5.39,8.18,7.39a38,38,0,0,1,0,5.84l12.7,2.75,9.52-.06-1.2-12.18s-.79-6.67-1.23-7.87-4-5.73-4-5.73a52.84,52.84,0,0,1-7.63,1.06s-5.35-8.35-6.35-10.15-6.19-6.39-8.58-9a2.42,2.42,0,0,0-1.66-1c-1.33,0-2,2.24-1.53,4.16"/></clipPath><linearGradient id="linear-gradient-5" x1="-170.08" y1="558.44" x2="-169.08" y2="558.44" gradientTransform="matrix(0, 71.77, 71.77, 0, -39982.6, 12314)" xlink:href="#linear-gradient-4"/><clipPath id="clip-path-16"><path class="cls-1" d="M144,118.48a17,17,0,0,0,2.25,6.31c1.39,2.16,5.36,9.09,5.63,10.3s-.43,8.13-.43,8.13l8.31-5.88s-.78-2.25-1.3-4.24-.17-4.33-.08-6.84a24.85,24.85,0,0,1,1.64-7.7c.86-2.16.08-2.85-1-3.29s-18.43-3.85-18.43-3.85,3,5.15,3.38,7"/></clipPath><linearGradient id="linear-gradient-6" x1="-170.08" y1="558.44" x2="-169.08" y2="558.44" gradientTransform="matrix(0, 30.53, 30.53, 0, -16896.35, 5301.83)" gradientUnits="userSpaceOnUse"><stop offset="0" stop-color="#f6ea92"/><stop offset="0.4" stop-color="#eacd62"/><stop offset="0.55" stop-color="#e6c75c"/><stop offset="0.75" stop-color="#dbb74d"/><stop offset="0.88" stop-color="#d2a93f"/><stop offset="1" stop-color="#d2a93f"/></linearGradient><clipPath id="clip-path-17"><path class="cls-1" d="M148.2,61.74c-4.16,4-3.72,5-3.38,6.75a7.33,7.33,0,0,1-1.21,5.36c-1.12,1.82-6.22,4.5-7.78,5.19s-3.12,2.07-2.95,3.55,3.29,3.29,3.29,3.29-.86,2.25-1.73,4.07-.17,1.64.26,2.08a52,52,0,0,0,4.67,2.5s-2.25,0-3.81-.09-1.64.17-1.82,1a5.47,5.47,0,0,0,1,3.29c.6.95-.08,2.16-.78,3.12s-2.85,2.68-1.55,6,8.5,2.57,8.5,2.57c-5-.18-3.53-2.85-1.06-5.43,1.14-1.2,5.45-4.33,7.27-5.8s3.55-1.66.78-4.33c-4.81-4.62-1.9-5.71-.09-7.09s6.83-3.2,7.53-4.94-2.08-4.23-2.08-4.23,2.6.17,4.07.08,1.21-1.12-.78-3.2A7.94,7.94,0,0,1,154,70c-.18-1.9-4.47-2.18-4.64-2.42s.32-1.09.7-1.54c1.86-2.16,11.55-16,30.75-9.1,21.85,7.82,22.06,25.26,22.06,25.26,1.13-8.39-4.59-22.92-22.75-28.54a35.52,35.52,0,0,0-10.52-1.7c-11.51,0-18.13,6.71-21.39,9.83"/></clipPath><linearGradient id="linear-gradient-7" x1="-170.08" y1="558.44" x2="-169.08" y2="558.44" gradientTransform="matrix(0, 57.63, 57.63, 0, -32012.96, 9853.74)" gradientUnits="userSpaceOnUse"><stop offset="0" stop-color="#fff"/><stop offset="0.01" stop-color="#fff"/><stop offset="0.05" stop-color="#fefefa"/><stop offset="0.1" stop-color="#fcfaea"/><stop offset="0.16" stop-color="#f8f4d1"/><stop offset="0.22" stop-color="#f3ebae"/><stop offset="0.28" stop-color="#eee28a"/><stop offset="0.83" stop-color="#d2a93f"/><stop offset="1" stop-color="#d2a93f"/></linearGradient><clipPath id="clip-path-18"><path class="cls-1" d="M145.16,63.79c-2.18,2.69-1.19,3.07-.9,5.25a7,7,0,0,1-1.67,5c-1.48,1.58-4.54,3.31-6.61,4.49s-3.55,1.58-3.84,2.76-.58,1.83,2.39,3.8l1.24,1.09a16.29,16.29,0,0,1-1.17,2.67c-.69,1.38-1.68,2.8-.39,3.39s3.95,2,3.95,2-3.06-.2-3.65-.2-1.23.43-1.43,1.42a2.39,2.39,0,0,0,.73,2.52,2,2,0,0,1-.1,3.16c-1,.89-3.21,3.17-2.56,5.82.7,2.86,2.11,3.79,7.4,4.2l.64.06a38.8,38.8,0,0,1,3.11,4.61,45.43,45.43,0,0,1,1.78,6.12c.69,2.57,2.36,4.73,4.24,7.6s3,5.43,3.06,6.9a44,44,0,0,1-.77,6.23l-1,1c-.32.31-1.12,1.13-1.53,1.65a61.32,61.32,0,0,0-8.58,14.79c-.19.46-1,2.57-1.14,3h1l2-.49c.19-.54.94-2.66,1-2.78,2.32-5.84,4.36-10.33,7.54-13.91,7.87-8.88,18.15-11.79,24.41-12.74,1.65-.25,3.07-.37,4.1-.45l.35,0c.52,0,1.05,0,1.09-.14s-.61-.46-.73-.49a8.74,8.74,0,0,0-2.93-.1c-8.47.85-19.07,5-24.09,9.32a34.29,34.29,0,0,0,.5-4.48c0-.12.08-1,.07-1.15-.12-1.82-1.68-4.63-3.63-7.62,0,0-3.56-5-3.94-7.4s-.09-2.78-.64-4a42.26,42.26,0,0,0-2.83-5.35c2.52.09,9.12.29,10.13.37,1.21.1,5.53.58,7.8.58,3.14,0,5.12-.64,7.1-5.44a4.54,4.54,0,0,0,1.86,1.41c1.37.64,4.14-.79,5.23-1.38,2-1.07,7.53-4.44,9.07-7.34s1.88-7.81-.93-10.67c-2.34-2.37-6.46-.13-6.77.12s-.47.36-.21,1c.14.37.32.29.85,0s4-1.5,5.33.19,1.93,4.55.48,8.13-5.52,5.67-6.62,6.36c-2.52,1.58-4.84,2.51-5.66,2.09s-2.09-.94-2.13-3.67c0-.31-.46-.29-.76.23a50.12,50.12,0,0,1-2.63,5c-.81,1.21-2,2.22-5.6,2.1-4-.13-6.84-.38-8.63-.51s-12.22,0-14.84-.88a3.24,3.24,0,0,1-1.94-2.27c-.56-2.57.43-3.7,1.73-4.87A3.69,3.69,0,0,0,136,99.38c0-.84-1.69-1.95-1.85-2.51a2.47,2.47,0,0,1,.33-1.66c.19-.31,1.7-.23,3.15-.15s2.75.15,2.82-.13c.14-.57-5.28-3-5.5-3.56a2.7,2.7,0,0,1,.43-1.89c.27-.5,1.41-3.67,1.41-3.67l-2-1.49c-1.45-1-1.31-1.51-1.32-1.86a2.27,2.27,0,0,1,.29-1.28c.81-1.09,7.45-3.89,9-5.59s2.73-2.82,2.79-4.38c.84,0,3.29,1.91,4,2.4.47.33,1.58,1.15,1.68,1.24a4.3,4.3,0,0,0,.43.27c-.77-1.24-4.36-4.49-5.34-5.48a3.63,3.63,0,0,1-1-2.76c0-.18.05-.32.08-.45a5.3,5.3,0,0,1,.79-1.26c.51-.63,12.68-15.46,28.88-11.74,9.87,2.27,17.18,6.37,21.73,12.19a23.55,23.55,0,0,1,5,14.73,26.92,26.92,0,0,1-.18,3.12c-.58,5.08-3.48,12.07-16,21.13l-.92.71c-.78,1.51-3.36,9.25-3.36,9.25-.26.68-.2,1.7,1.28,3.8.45.65,8.3,11.71,10.32,15,2.32,3.77,6.6,14,6.6,14l1.71-2s-5.79-11.92-6.75-13.45c-1.09-1.75-9.42-13.39-9.42-13.39-1.09-1.72-2.27-3.16-2.07-3.95s2.15-7.17,2.84-7.86,16.35-10.2,17.89-23.52-6-26.75-27.92-31.76a25.28,25.28,0,0,0-5.66-.65c-13.87,0-23.79,11.51-24.94,12.94"/></clipPath><linearGradient id="linear-gradient-8" x1="-170.08" y1="558.44" x2="-169.08" y2="558.44" gradientTransform="matrix(0, 93.46, 93.46, 0, -52026.16, 15958.98)" gradientUnits="userSpaceOnUse"><stop offset="0" stop-color="#bb8d24"/><stop offset="0.11" stop-color="#b58822"/><stop offset="0.26" stop-color="#a5791d"/><stop offset="0.38" stop-color="#916616"/><stop offset="0.88" stop-color="#916616"/><stop offset="1" stop-color="#916616"/></linearGradient><clipPath id="clip-path-19"><path class="cls-1" d="M94.45,120.63c-1.09,2.45.48,6,2.19,8.46s2.34,3.34,2.06,4.86c-.19,1-1.75,1.84-1.75,1.84s-5.9-2.64-8.21-3.59-2-.55-3.13-1.64-5.12-4.45-5.94-5-1.4-2.08-3.58-3.72-3.81-3.12-5.71-2-1,2.09.5,4.76a54.64,54.64,0,0,0,5.2,7.19c2,2.58,4.7,5.23,5.92,6.86s3.34,6.63,6.6,7.72,12.11,4.35,13.87,6.26c1.45,1.56,2.26,1.58,1.75,8.86l1.35.49c.08-1.32.16-2.94.16-3.67,0-3.62-.56-5-1.82-6.29l-.37-.38c-2.42-2.6-14-6.48-14.48-6.65-2-.66-3.65-3.52-4.77-5.42a20.94,20.94,0,0,0-1.13-1.79c-.63-.83-1.54-1.85-2.61-3s-2.3-2.55-3.33-3.86l-.93-1.17a43.38,43.38,0,0,1-4.14-5.83l-.47-.8a10.78,10.78,0,0,1-.91-1.76,2.59,2.59,0,0,1,.33-.22c.78-.45,1.49-.06,3.53,1.5l.59.44a11.36,11.36,0,0,1,2.33,2.38,5.84,5.84,0,0,0,1.32,1.38c.7.47,4.65,3.74,5.72,4.81A4.41,4.41,0,0,0,86.75,133l1.45.55s8,3.1,8,3.28c-.69.72-.85,1.64-.19,1.14,1.18-.88,4.87-2.73,4.23-4.68a17.52,17.52,0,0,0-2.61-5c-1.13-1.61-2.39-4-2.39-5.8a3.48,3.48,0,0,1,.27-1.41c.82-1.33,1.54-.66,2.12,0s1.21,1.52,1.95,2.32a42,42,0,0,0,4.89,4.63c.82.62.79.92,1.44,2.13a32.57,32.57,0,0,0,3.69,6.29c5.55,7.56,6.4,10,6.53,11.08s.58,10.48.86,16.62l2.07.37c-.4-5.45-1.12-15.35-1.28-16.7-.27-2.31-1.38-4.74-6.27-11.4s-3.62-7.62-5.8-9.25-6.09-5.86-7.45-7.08a3.45,3.45,0,0,0-2-1.11c-.63,0-1.23.45-1.77,1.65"/></clipPath><linearGradient id="linear-gradient-9" x1="-170.08" y1="558.44" x2="-169.08" y2="558.44" gradientTransform="matrix(0, 65.82, 65.82, 0, -36664.28, 11304.78)" gradientUnits="userSpaceOnUse"><stop offset="0" stop-color="#bb8e3b"/><stop offset="0.22" stop-color="#ad812f"/><stop offset="0.63" stop-color="#986d1d"/><stop offset="0.9" stop-color="#916616"/><stop offset="1" stop-color="#916616"/></linearGradient><clipPath id="clip-path-21"><path class="cls-1" d="M53.69,103.42a73.64,73.64,0,1,1,73.64,73.64,73.64,73.64,0,0,1-73.64-73.64m-28.87,0A102.51,102.51,0,1,0,127.33.91,102.51,102.51,0,0,0,24.82,103.42"/></clipPath><linearGradient id="linear-gradient-10" x1="-170.08" y1="558.44" x2="-169.08" y2="558.44" gradientTransform="matrix(0, 205.02, 205.02, 0, -114362.84, 34870.37)" gradientUnits="userSpaceOnUse"><stop offset="0" stop-color="#eacd62"/><stop offset="0.33" stop-color="#ffefcf"/><stop offset="0.83" stop-color="#eacd62"/><stop offset="1" stop-color="#eacd62"/></linearGradient><clipPath id="clip-path-22"><path class="cls-1" d="M25.74,103.42A101.6,101.6,0,1,1,127.33,205a101.71,101.71,0,0,1-101.6-101.6m-1.83,0A103.43,103.43,0,1,0,127.33,0,103.55,103.55,0,0,0,23.91,103.42"/></clipPath><linearGradient id="linear-gradient-11" x1="-170.08" y1="558.44" x2="-169.08" y2="558.44" gradientTransform="matrix(0, 206.85, 206.85, 0, -115384.65, 35180.66)" gradientUnits="userSpaceOnUse"><stop offset="0" stop-color="#bb8d0b"/><stop offset="0.03" stop-color="#be9011"/><stop offset="0.15" stop-color="#c99e2a"/><stop offset="0.27" stop-color="#d0a63a"/><stop offset="0.37" stop-color="#d2a93f"/><stop offset="1" stop-color="#916600"/></linearGradient><clipPath id="clip-path-23"><path class="cls-1" d="M54.61,103.42a72.73,72.73,0,1,1,72.73,72.73,72.81,72.81,0,0,1-72.73-72.73m-1.83,0a74.56,74.56,0,1,0,74.55-74.55,74.64,74.64,0,0,0-74.55,74.55"/></clipPath><linearGradient id="linear-gradient-12" x1="-170.08" y1="558.44" x2="-169.08" y2="558.44" gradientTransform="matrix(0, 149.11, 149.11, 0, -83142.26, 25389.69)" gradientUnits="userSpaceOnUse"><stop offset="0" stop-color="#bb8d24"/><stop offset="0.06" stop-color="#c1942b"/><stop offset="0.23" stop-color="#cea43a"/><stop offset="0.37" stop-color="#d2a93f"/><stop offset="0.62" stop-color="#b68a2c"/><stop offset="0.84" stop-color="#a4761f"/><stop offset="0.99" stop-color="#9d6f1b"/><stop offset="1" stop-color="#9d6f1b"/></linearGradient><clipPath id="clip-path-25"><path class="cls-1" d="M216.6,179.2l-5.12,12h0c-6.53,2.16-21.1,5.45-25.83,10l.09,0c27.65,3.87,48.41,13.39,56.31,17.86l-11.72-21.63,22.3-3.24s-13-8.44-36-15Z"/></clipPath><linearGradient id="linear-gradient-13" x1="-170.08" y1="558.44" x2="-169.08" y2="558.44" gradientTransform="matrix(255.15, 0, 0, -255.15, 43395.43, 142682.24)" gradientUnits="userSpaceOnUse"><stop offset="0" stop-color="#eacd62"/><stop offset="0.5" stop-color="#ffeebd"/><stop offset="1" stop-color="#eacd62"/></linearGradient><clipPath id="clip-path-27"><path class="cls-1" d="M38.47,179.72c-22.9,6.58-36,15-36,15l22,3.38L13.09,219.61c7.9-4.46,28.66-14,56.31-17.86l.09,0,0,0c-4.73-4.54-19.21-7.7-25.74-9.85l0,0-4.94-12.23Z"/></clipPath><linearGradient id="linear-gradient-14" x1="-170.08" y1="558.44" x2="-169.08" y2="558.44" gradientTransform="matrix(255.15, 0, 0, -255.15, 43395.52, 142683.05)" xlink:href="#linear-gradient-13"/><clipPath id="clip-path-29"><path class="cls-1" d="M126.95,142.76c-52.62,0-93.48,24-93.48,24l10.27,25.43s38.72-21.42,83.79-21.44c39.36,0,74,15.14,84,20.8l10.57-24.93S183,142.83,127.15,142.76Z"/></clipPath><linearGradient id="linear-gradient-15" x1="-170.08" y1="558.44" x2="-169.08" y2="558.44" gradientTransform="matrix(255.15, 0, 0, -255.15, 43395.56, 142651.01)" xlink:href="#linear-gradient-13"/><clipPath id="clip-path-30"><path class="cls-1" d="M64.69,198l-.55-.24-.41-.18A124.77,124.77,0,0,0,49.62,193l-3.48-1a157.12,157.12,0,0,1,14.73-6.49l6.33,13.88c-.77-.44-1.62-.87-2.52-1.28M194.5,184.66q1.81.7,3.52,1.41l2,.85c4,1.73,7.07,3.27,9.11,4.34l-3.29,1c-3.77,1.09-8,2.32-11.74,3.73a42.93,42.93,0,0,0-6.1,2.74l6.5-14.07M25.93,197.71,5.18,194.52A157.83,157.83,0,0,1,38.25,181l4.33,10.71.47,1.17h.06l.32.13.38.11,5.32,1.58c6,1.7,13.87,4,18.09,6.71a173.2,173.2,0,0,0-51.91,16.21l10.62-20m162,3.22c.28-.18.58-.37.9-.55,4.43-2.54,11.79-4.68,17.45-6.31l5.16-1.55.74-.22v0h.05l.49-1.16,4.45-10.5A157.6,157.6,0,0,1,249.89,194l-21,3.06,10.89,20.1a173.16,173.16,0,0,0-51.87-16.19M34.61,167.13c5.17-2.92,44.47-23.51,92.54-23.45C178,143.74,216,164,220.95,167l-4.87,11.48-.32.7-4.71,11a131.53,131.53,0,0,0-14.9-6.85l-1.78-.7h0l-.78-.3h0c-14.39-5.44-40.14-12.52-66-12.51-25.44,0-51.77,8.05-66.36,13.56l-.1,0a143.54,143.54,0,0,0-16.88,7.45l-9.58-23.73M127,141.85c-52.28,0-93.6,23.88-94,24.1l-.66.4,5.24,13C15.2,185.85,2.15,194.18,2,194.27l-2,1.3,23.11,3.55L10.82,222.24l2.72-1.54c3.91-2.21,24.93-13.36,55.81-17.71l1.46-.2-8.23-18c14.43-5.38,40.2-13.15,64.94-13.16,25.53,0,51,7,65.26,12.35L185,200.87h0l-.65,1.37s.64.11,1.39.2c30.9,4.35,51.92,15.51,55.83,17.72l2.76,1.56-12.61-23.28,23.41-3.4-2-1.32c-.13-.08-13-8.34-35.21-14.84l5.36-12.64-.64-.42c-.35-.23-39.95-23.91-95.44-24Z"/></clipPath><linearGradient id="linear-gradient-16" x1="-170.08" y1="558.44" x2="-169.08" y2="558.44" gradientTransform="matrix(255.13, 0, 0, -255.13, 43392.11, 142655.45)" gradientUnits="userSpaceOnUse"><stop offset="0" stop-color="#d3a809"/><stop offset="0.5" stop-color="#916600"/><stop offset="1" stop-color="#d3a809"/></linearGradient></defs><title>Asset 1</title><g id="Layer_2" data-name="Layer 2"><g id="Layer_1-2" data-name="Layer 1"><g class="cls-2"><g class="cls-3"><rect class="cls-4" x="45.52" y="28.4" width="129.86" height="129.86" transform="translate(-29.36 130.27) rotate(-55)"/></g><g class="cls-5"><rect class="cls-6" x="47.23" y="30.12" width="126.42" height="126.42" transform="translate(-33.65 105.43) rotate(-45)"/></g><g class="cls-7"><rect class="cls-8" x="66.64" y="49.53" width="87.62" height="87.61"/></g><g class="cls-9"><rect class="cls-10" x="103.79" y="65.07" width="4.53" height="6.45"/></g><g class="cls-11"><rect class="cls-12" x="101.13" y="67.49" width="3.07" height="2.84"/></g><g class="cls-13"><rect class="cls-14" x="80.59" y="50.57" width="23.63" height="14.7"/></g><g class="cls-15"><rect class="cls-16" x="116.1" y="51.57" width="4.17" height="0.74"/></g><g class="cls-17"><rect class="cls-18" x="113.12" y="51.84" width="4.81" height="2.02"/></g><g class="cls-19"><rect class="cls-20" x="135.66" y="119.37" width="5.2" height="9.37"/></g><g class="cls-21"><rect class="cls-22" x="94" y="56.38" width="60.23" height="80.04"/></g><g class="cls-23"><rect class="cls-24" x="124.33" y="62.83" width="1.61" height="1.29"/></g><g class="cls-25"><rect class="cls-26" x="100.25" y="45.83" width="134.38" height="124.36" transform="translate(-17.07 183.22) rotate(-55)"/></g><g class="cls-27"><rect class="cls-28" x="100.93" y="146.39" width="55.05" height="38.97" transform="translate(-50.48 56.34) rotate(-20.77)"/></g><g class="cls-29"><rect class="cls-30" x="63.5" y="105.77" width="69.74" height="72.85" transform="translate(-74.53 141.22) rotate(-55)"/></g><g class="cls-31"><rect class="cls-32" x="131.97" y="109.92" width="37.65" height="34.82" transform="translate(-40 177.82) rotate(-55)"/></g><g class="cls-33"><rect class="cls-34" x="121.7" y="33.2" width="91.77" height="94.67" transform="translate(5.49 171.61) rotate(-55)"/></g><g class="cls-35"><rect class="cls-36" x="99.98" y="43.27" width="135.76" height="126.26" transform="translate(-15.58 182.88) rotate(-55)"/></g><g class="cls-37"><rect class="cls-38" x="60.51" y="107.76" width="66.52" height="67.7" transform="translate(-76.02 137.2) rotate(-55)"/></g><g class="cls-2"><path class="cls-39" d="M174.1,99.58a3.76,3.76,0,0,0-3.52,1.22,1.63,1.63,0,0,0,.51,2.5c.38.06,1-.45.64-.83a1.21,1.21,0,0,1,.71-1.74c1-.45,1.88,0,2.84,0a5.44,5.44,0,0,0,4.26-2.29c.71-1.13,1.67-2.88.51-4.93a3.35,3.35,0,0,0-4.93-1c-.51,1.22-.17.92.57.58a2.49,2.49,0,0,1,3.07,1c.77,1,.2,2.5-.38,3.46a4.74,4.74,0,0,1-4.29,2"/><path class="cls-40" d="M151.12,76.5a36.83,36.83,0,0,0-3.43-2.73c-.59-.36-.81.25-1.09.81a8.2,8.2,0,0,0-.36,2.45c0,.34.42.34,1.62.59.53.11,4.57.47,4.57.47a7.16,7.16,0,0,0-1.31-1.59"/><path class="cls-41" d="M135.83,84.13c-.93-.24-1-.16-.89,0a12.35,12.35,0,0,0,2.14,1.42c.85.47,1.2.53,1.45.44s.75-.22-.07-1-1.69-.69-2.62-.93"/><path class="cls-42" d="M121.51,138.61l-1.58.34s3.31,3.75,3.77,4.88,1.41,3.55,2,16.77c0,.28.25,3.92.26,4.21l2-.61c-.32-3.77-1.16-12.33-2.18-18.58-.57-3.51-2.4-4.75-4.23-7"/></g><g class="cls-43"><rect class="cls-44" x="24.82" y="0.91" width="205.03" height="205.02"/></g><g class="cls-45"><rect class="cls-46" x="23.91" width="206.86" height="206.85"/></g><g class="cls-47"><rect class="cls-48" x="52.78" y="28.87" width="149.12" height="149.11"/></g><g class="cls-2"><path class="cls-49" d="M44.47,148.46a3.32,3.32,0,0,0-1.18,1.39,2,2,0,0,0,.16.91c.08.21.11.35-.05.41s-.26-.09-.38-.38c-.44-1.09-.85-2.27-.93-2.46s-.52-1.09-1-2.3c-.12-.3-.12-.47,0-.52s.26.09.34.3a1.16,1.16,0,0,0,.3.49c.16.16.32.14.56,0A14.94,14.94,0,0,0,44,145.09c1.24-.92,6.81-5.47,7.83-6.32l0-.07-12.6.39c-.67,0-.9-.05-1-.22s.18-.47.74-1l8.78-8.67,0-.06c-1.56.19-7.78.77-10.54,1a4.81,4.81,0,0,0-1.3.29c-.34.13-.55.45-.22,1.26.09.21.08.38,0,.43s-.26-.09-.39-.4c-.45-1.11-.75-2-.83-2.21s-.49-1-.77-1.72c-.09-.23-.11-.39,0-.45s.25,0,.33.21a2.4,2.4,0,0,0,.4.69c.39.42,1.33.32,2.7.27,3-.11,10.61-.63,14.18-.88.83-.07,1.12-.07,1.23.21s-.11.44-.76,1.07L43,137.59l0,0c1.23,0,9.8-.27,12.1-.16,1,0,1.32,0,1.42.3s-.11.39-.58.8Z"/><path class="cls-49" d="M41,119.78c-3.86.33-9.07-1.8-9.64-8.58-.47-5.62,2.51-9.4,7.68-9.83a9,9,0,0,1,10,8.57c.55,6.48-4.09,9.51-8.09,9.85m-.86-15.33c-5.06.43-8,3.6-7.64,7.31.22,2.6,1.91,5.43,7.54,5,4.7-.4,8.21-3.31,7.85-7.64-.13-1.58-1.21-5.18-7.74-4.63"/><path class="cls-49" d="M38.34,93c-3.4-.57-4-.68-4.75-.76s-1.16,0-1.44.75a4.44,4.44,0,0,0-.22.86c0,.24-.11.37-.27.34s-.18-.19-.12-.53c.2-1.19.51-2.58.59-3,.13-.76.35-2.47.47-3.17a7.26,7.26,0,0,1,1.66-3.95,3.93,3.93,0,0,1,3.32-1c1.65.28,3.06,1.23,4.51,3.8,2.84-1.56,5.09-2.77,6.7-3.85a4.52,4.52,0,0,0,1.94-2.24,3.67,3.67,0,0,0,.18-.62c0-.18.11-.26.22-.24s.2.19.15.46l-.36,2.12a4.62,4.62,0,0,1-.83,2.32c-.68.87-1.87,1.55-3.81,2.51-1.38.69-3.07,1.46-3.46,1.69a.48.48,0,0,0-.23.38l-.37,1.94a.15.15,0,0,0,.15.21l.31.05c2.08.35,3.84.65,4.8.7.66,0,1.17,0,1.38-.66.1-.33.23-.82.28-1.08s.11-.26.22-.24.2.19.15.48c-.22,1.3-.57,2.94-.62,3.27s-.24,1.84-.39,2.74c0,.29-.14.43-.3.41s-.16-.12-.12-.39a3.6,3.6,0,0,0,0-.82c0-.46-.49-.66-1.12-.86-.92-.27-2.68-.57-4.74-.92Zm2.21-2.34c.25,0,.34,0,.44-.13a6,6,0,0,0,.51-1.66,2.28,2.28,0,0,0-.11-1.65,4,4,0,0,0-3.13-1.89c-3.17-.54-4.45,1.41-4.67,2.73a5,5,0,0,0-.11,1.2c0,.17.1.23.28.26Z"/><path class="cls-49" d="M47.79,71.92c2.7,1.07,4.15,1.65,4.7,1.35s.82-.72,1.48-2.36c.44-1.12.75-1.94.39-2.7a2.86,2.86,0,0,0-1-1.05c-.18-.1-.29-.19-.22-.36s.17-.13.43,0a18.45,18.45,0,0,1,2.3,1.28c.41.31.48.46,0,1.55-.6,1.52-1.08,2.6-1.48,3.54s-.74,1.68-1.08,2.54c-.09.23-.28.7-.46,1.21s-.37,1-.54,1.47c-.11.27-.23.39-.38.34s-.14-.15,0-.4a3.79,3.79,0,0,0,.22-.79c.08-.46-.34-.74-.92-1.07-.84-.46-2.51-1.12-4.44-1.89L43,73.08c-3.2-1.27-3.79-1.51-4.48-1.73s-1.14-.21-1.56.43a3.28,3.28,0,0,0-.34.67c-.09.23-.18.34-.33.28s-.13-.22,0-.54c.4-1,1-2.29,1.21-2.86s.75-2.07,1.08-2.89c.12-.29.22-.42.37-.36s.14.2,0,.45a5.92,5.92,0,0,0-.26.85c-.12.61.17.92.89,1.26s1.25.54,4.45,1.82Z"/><path class="cls-49" d="M50.24,57.31c-2.81-2-3.33-2.36-4-2.74s-1.06-.47-1.62,0a4.68,4.68,0,0,0-.57.68c-.14.2-.26.29-.39.2s-.07-.25.12-.52c.69-1,1.57-2.11,1.94-2.63s1.17-1.78,2-2.89c1.64-2.31,3.82-5.41,7.36-5.93a8.1,8.1,0,0,1,6,1.53,9,9,0,0,1,3.74,5.67c.27,1.47.22,4.32-2.2,7.75-.47.67-1.06,1.39-1.62,2.05s-1.07,1.27-1.39,1.73c-.14.21-.43.61-.73,1.07s-.6.93-.87,1.3-.32.33-.45.24-.09-.18.06-.4a3.82,3.82,0,0,0,.4-.72c.19-.42-.16-.8-.64-1.26-.71-.64-2.17-1.68-3.88-2.88Zm3.67-.87c2,1.39,3.4,2.37,3.77,2.61a5,5,0,0,0,1.55.79c.52,0,1.42-.44,2.45-1.9a7.28,7.28,0,0,0,1.68-5.2c-.18-1.9-1.6-3.46-3.51-4.81A7.71,7.71,0,0,0,54,46.42a9,9,0,0,0-5.57,3.95,6.23,6.23,0,0,0-.72,1.3.42.42,0,0,0,.21.48c.62.46,2.23,1.6,3.69,2.63Z"/><path class="cls-49" d="M72.3,26.07l-2.72,2c-1.06.79-1.44,1.19-1.43,1.79a2.7,2.7,0,0,0,.13.87c.07.17.06.29,0,.36s-.23,0-.37-.18-1-2.24-1.1-2.41-.13-.43,0-.51a5,5,0,0,0,1-.33c.58-.32,1.31-.78,1.93-1.2L77,21.35a10.73,10.73,0,0,0,1.22-1,5.36,5.36,0,0,1,.44-.44c.13-.09.23,0,.42.29s1.1,1.72,1.44,2.2c.11.2.15.34,0,.41s-.25,0-.46-.23l-.16-.19c-.37-.46-1.24-.63-2.92.48l-2.38,1.57,5.3,7.64c1.19,1.71,2.21,3.18,2.86,3.92.42.48.81.81,1.42.5a9.76,9.76,0,0,0,1-.59c.2-.14.34-.15.4-.06s0,.29-.23.43c-1.23.85-2.44,1.61-3,2S80.86,39.45,80.12,40c-.24.17-.41.2-.5.07s0-.2.2-.35a3.51,3.51,0,0,0,.62-.54c.32-.33.15-.82-.17-1.4-.45-.85-1.47-2.32-2.66-4Z"/><path class="cls-49" d="M89.59,22c-1.28-3.2-1.51-3.79-1.83-4.45s-.63-1-1.39-.84a4.94,4.94,0,0,0-.85.26c-.23.09-.37.1-.43,0s.07-.25.39-.38c1.12-.44,2.47-.91,2.91-1.09.72-.28,2.29-1,2.94-1.25a7.27,7.27,0,0,1,4.24-.64,3.93,3.93,0,0,1,2.58,2.31c.62,1.56.54,3.25-.89,5.83,2.81,1.61,5,2.9,6.78,3.71a4.51,4.51,0,0,0,2.93.49,3.63,3.63,0,0,0,.61-.17c.17-.07.28,0,.32.07s-.06.27-.32.37l-2,.8a4.61,4.61,0,0,1-2.41.5c-1.1-.12-2.3-.79-4.12-1.94-1.31-.82-2.85-1.87-3.24-2.07a.47.47,0,0,0-.44,0l-1.85.69a.16.16,0,0,0-.1.24l.12.29c.78,2,1.45,3.62,1.9,4.46.31.59.62,1,1.28.83a10.88,10.88,0,0,0,1.07-.33c.17-.07.28,0,.32.07s-.06.27-.34.38c-1.22.49-2.8,1-3.12,1.17S93,32,92.12,32.34c-.27.11-.45.1-.51,0s0-.2.27-.3a3.48,3.48,0,0,0,.72-.39c.39-.25.31-.75.15-1.4-.25-.93-.91-2.59-1.69-4.53Zm3.15.67c.09.23.17.3.34.3a6,6,0,0,0,1.68-.43c.84-.34,1.08-.53,1.35-1a4,4,0,0,0,0-3.65c-1.2-3-3.52-3.06-4.76-2.57a5.07,5.07,0,0,0-1.08.53c-.13.1-.14.2-.07.37Z"/><path class="cls-49" d="M110.76,20c-.11,0-.15.07-.17.21l-.7,3.39a4.35,4.35,0,0,0-.12,1.42c.06.4.31.66,1,.55l.33-.05c.27,0,.34,0,.37.13s-.1.24-.35.29c-.72.11-1.69.2-2.38.31-.25,0-1.47.3-2.63.49-.29,0-.43,0-.46-.16s.06-.19.24-.22a6.55,6.55,0,0,0,.69-.15c1-.3,1.31-1.13,1.59-2.32l3.4-14.95c.17-.69.26-1,.49-1s.37.15.67.63c.73,1.15,5.76,9.72,7.73,12.89,1.17,1.88,1.87,2.09,2.36,2.13a5,5,0,0,0,1-.06c.18,0,.29,0,.32.13s-.16.26-1,.38-2.44.38-4.24.62c-.4,0-.67.08-.7-.07s.06-.2.28-.25a.37.37,0,0,0,.12-.55L116,19.34a.22.22,0,0,0-.25-.12Zm4.39-1.84c.11,0,.12-.09.09-.15l-2.89-5.22c0-.09-.08-.19-.14-.18s-.1.13-.1.22l-1.19,5.83c0,.09,0,.16.11.14Z"/><path class="cls-49" d="M124.87,9.25c-.47-1.27-.84-1.53-1.65-1.8a3.43,3.43,0,0,0-.88-.13c-.2,0-.27-.08-.26-.22s.26-.2.6-.18c1.2.05,2.49.18,3.28.21.57,0,1.65,0,2.79.05.27,0,.52.07.51.23s-.15.2-.35.19a1.66,1.66,0,0,0-.89.12.55.55,0,0,0-.24.47,6.79,6.79,0,0,0,.44,1.77l3.45,10.45h.09c1.08-2.45,4.35-9.61,5-11.08a3,3,0,0,0,.24-.83.44.44,0,0,0-.28-.45,3,3,0,0,0-.9-.15c-.21,0-.38,0-.38-.2s.22-.22.65-.2c1.13.05,2.08.16,2.37.18s1.45,0,2.13,0c.3,0,.48.07.47.22s-.14.2-.37.19a2,2,0,0,0-1.12.22c-.3.19-.66.56-1.34,2-1,2.09-1.64,3.29-3,6-1.6,3.24-2.77,5.66-3.32,6.77-.64,1.29-.8,1.64-1.11,1.63s-.42-.34-.8-1.42Z"/><path class="cls-49" d="M146.37,15.78c.86-3.33,1-3.95,1.16-4.66s.06-1.16-.62-1.5a4.74,4.74,0,0,0-.84-.28c-.24-.06-.36-.14-.32-.3s.2-.16.53-.07l1.77.48c.56.17,1.07.32,1.37.4.7.18,5.07,1.31,5.49,1.39a9.81,9.81,0,0,0,1,.11,2,2,0,0,1,.37,0c.11,0,.11.12.08.23a13.71,13.71,0,0,0-.55,1.38c-.08.22-.37,1.17-.48,1.42s-.13.23-.28.19-.17-.16-.12-.36a2.35,2.35,0,0,0,.08-.82c-.05-.44-.2-.76-1.27-1.17-.36-.14-2.65-.78-3.09-.89-.11,0-.17,0-.21.18L149,17.06c0,.15,0,.25.09.28.48.13,3,.77,3.52.86a1.59,1.59,0,0,0,1.14-.06c.2-.14.32-.23.43-.2s.14.08.11.22-.21.46-.59,1.56c-.13.43-.43,1.29-.47,1.45s-.1.42-.31.37a.18.18,0,0,1-.14-.25,6.26,6.26,0,0,0,.12-.81c0-.47-.22-.88-1-1.17-.41-.15-2.57-.73-3.1-.87-.11,0-.15.05-.19.19l-.45,1.74c-.19.74-.74,2.76-.88,3.4-.35,1.53-.08,1.95,2.16,2.52a5.78,5.78,0,0,0,2.13.27c.64-.11,1-.51,1.4-1.37.11-.23.17-.31.33-.27s.13.22.07.44a17.69,17.69,0,0,1-.91,2.36c-.3.53-.5.48-1.33.26-1.65-.43-2.85-.78-3.78-1s-1.61-.49-2.27-.65c-.24-.06-.73-.19-1.26-.3s-1.09-.23-1.53-.35c-.29-.07-.42-.18-.38-.33s.13-.15.4-.08a3.64,3.64,0,0,0,.81.11c.46,0,.69-.43.95-1,.35-.89.8-2.63,1.32-4.65Z"/><path class="cls-49" d="M163.83,26c-1.25,2.62-1.93,4-1.67,4.6s.66.87,2.26,1.63c1.08.52,1.89.88,2.67.57a2.88,2.88,0,0,0,1.12-1c.1-.18.21-.28.37-.2s.11.18,0,.43a17.59,17.59,0,0,1-1.43,2.21c-.34.39-.49.45-1.55-.06-1.47-.7-2.52-1.25-3.43-1.71s-1.63-.85-2.47-1.25c-.22-.11-.67-.32-1.17-.54s-1-.44-1.43-.63-.38-.26-.31-.4.16-.12.4,0a3.51,3.51,0,0,0,.77.27c.45.12.76-.29,1.13-.84.51-.81,1.28-2.43,2.18-4.31l1.72-3.6c1.49-3.11,1.76-3.68,2-4.36s.28-1.12-.32-1.59a3.39,3.39,0,0,0-.65-.38c-.23-.11-.33-.21-.26-.35s.23-.12.54,0c1,.46,2.22,1.14,2.77,1.4s2,.89,2.81,1.27c.29.14.41.24.34.39s-.21.13-.46,0a5.85,5.85,0,0,0-.82-.32c-.6-.16-.93.11-1.31.8s-.63,1.21-2.11,4.32Z"/><path class="cls-49" d="M182.51,38.8c-.08-.08-.15-.08-.27,0l-3.1,1.54a4.4,4.4,0,0,0-1.19.78c-.28.3-.33.66.19,1.13l.25.23c.2.18.22.26.13.36s-.25.07-.43-.1c-.53-.49-1.2-1.2-1.72-1.68-.18-.17-1.14-1-2-1.77-.22-.2-.28-.32-.16-.46s.19-.07.32.05a6.85,6.85,0,0,0,.55.45c.85.6,1.7.34,2.8-.19l13.85-6.57c.65-.29.91-.38,1.08-.23s.11.38-.08.92c-.45,1.29-4.08,10.53-5.36,14-.76,2.08-.49,2.76-.22,3.17a4.79,4.79,0,0,0,.64.71c.13.12.2.22.09.33s-.3,0-.92-.55-1.81-1.68-3.11-2.95c-.28-.3-.48-.48-.38-.6s.19-.07.37.07a.37.37,0,0,0,.51-.24l1.94-4.76a.22.22,0,0,0-.06-.27Zm4.16,2.31c.08.07.14,0,.17,0l2.31-5.49c0-.08.11-.18.06-.23s-.16,0-.24.06l-5.32,2.67c-.08,0-.11.11,0,.18Z"/><path class="cls-49" d="M200.8,44a3.35,3.35,0,0,0,.91-1.57,2,2,0,0,0-.31-.87c-.12-.19-.18-.32,0-.42s.27,0,.44.31c.63,1,1.25,2.09,1.35,2.26s.7,1,1.41,2.09c.17.27.2.44.08.51s-.27,0-.39-.24a1.24,1.24,0,0,0-.38-.43c-.19-.12-.35-.07-.56.06a15.18,15.18,0,0,0-1.49,1.54c-1.06,1.13-5.72,6.59-6.57,7.62l0,.06,12.33-2.63c.66-.15.89-.11,1,0s-.09.49-.55,1.13L201,63.56l0,.06c1.5-.47,7.52-2.15,10.19-2.91a5,5,0,0,0,1.24-.51c.3-.2.46-.54,0-1.28-.12-.19-.15-.36,0-.44s.27,0,.45.33c.65,1,1.1,1.85,1.21,2s.67.92,1.07,1.55c.13.21.18.37.06.44s-.25,0-.36-.15a2.52,2.52,0,0,0-.52-.61c-.46-.35-1.36-.07-2.71.22-3,.65-10.33,2.51-13.79,3.4-.8.22-1.09.27-1.25,0s0-.45.56-1.19l7.06-10.07,0,0c-1.2.26-9.59,2-11.88,2.32-1,.13-1.31.18-1.45,0s0-.4.43-.89Z"/><path class="cls-49" d="M207.19,74.61c0-.11-.09-.14-.23-.14l-3.46-.2a4.43,4.43,0,0,0-1.43.09c-.39.12-.61.4-.39,1.07l.1.32c.08.26.06.34-.07.38s-.26-.06-.33-.3c-.22-.69-.44-1.64-.66-2.31-.07-.24-.51-1.41-.87-2.53-.09-.28-.09-.43.09-.48s.2,0,.25.2.18.49.25.66c.44,1,1.31,1.13,2.53,1.23l15.29,1.17c.71.06,1,.12,1.05.33s-.09.38-.52.76c-1,.89-8.77,7.12-11.62,9.54-1.69,1.43-1.79,2.16-1.76,2.64a5,5,0,0,0,.2.94c.05.17.07.29-.09.33s-.28-.13-.53-.93-.74-2.36-1.24-4.1c-.1-.4-.18-.65,0-.7s.2,0,.29.24a.37.37,0,0,0,.56,0l4-3.17a.22.22,0,0,0,.08-.27Zm2.46,4.08c0,.11.11.11.17.07l4.73-3.62c.08-.05.18-.11.16-.17s-.14-.07-.23-.07l-5.95-.32c-.09,0-.15,0-.12.13Z"/><path class="cls-49" d="M216,91.12c3.44-.28,4.07-.33,4.79-.43s1.11-.32,1.21-1.07a5,5,0,0,0,0-.89c0-.25,0-.39.17-.4s.22.14.25.48c.09,1.2.14,2.63.18,3.1.06.77.27,2.48.33,3.18a7.26,7.26,0,0,1-.63,4.24,3.92,3.92,0,0,1-3,1.79c-1.67.14-3.26-.44-5.31-2.57-2.37,2.22-4.25,3.94-5.54,5.39a4.5,4.5,0,0,0-1.33,2.66,3.47,3.47,0,0,0,0,.64c0,.18,0,.28-.16.29s-.24-.14-.26-.41l-.18-2.15a4.64,4.64,0,0,1,.23-2.45c.44-1,1.43-2,3.07-3.37,1.17-1,2.62-2.17,2.94-2.49a.48.48,0,0,0,.12-.42l-.12-2a.16.16,0,0,0-.2-.17l-.32,0c-2.1.17-3.88.32-4.83.51-.64.12-1.13.29-1.17,1a10.35,10.35,0,0,0,0,1.11c0,.18,0,.28-.16.29s-.24-.14-.26-.43c-.11-1.31-.18-3-.2-3.33s-.22-1.85-.29-2.75c0-.3,0-.46.19-.47s.19.08.21.35a3.56,3.56,0,0,0,.16.81c.13.44.63.52,1.29.55,1,0,2.75-.11,4.82-.28Zm-1.57,2.81c-.25,0-.34.07-.39.24A6.16,6.16,0,0,0,214,95.9a2.26,2.26,0,0,0,.51,1.57,4,4,0,0,0,3.5,1.06c3.21-.26,4-2.46,3.85-3.79a5.18,5.18,0,0,0-.19-1.19c-.06-.15-.16-.19-.33-.18Z"/><path class="cls-49" d="M216.56,112c3.39.6,4,.71,4.74.79s1.16,0,1.44-.74a4.75,4.75,0,0,0,.22-.86c0-.25.11-.37.27-.34s.17.19.12.52c-.21,1.18-.53,2.58-.64,3.2s-.3,2.11-.54,3.45c-.49,2.79-1.15,6.52-4.13,8.5a8.11,8.11,0,0,1-6.05,1.17,9,9,0,0,1-5.8-3.53c-.87-1.21-2-3.81-1.32-7.94.14-.8.37-1.71.59-2.54s.42-1.61.52-2.16c0-.25.13-.74.2-1.28s.15-1.1.23-1.55c.05-.29.15-.44.3-.4s.16.12.11.39a3.62,3.62,0,0,0-.05.82c0,.47.48.66,1.12.87.91.28,2.68.59,4.74.95Zm-3,2.36c-2.37-.42-4.09-.7-4.52-.75a5,5,0,0,0-1.74-.05c-.48.22-1.1,1-1.41,2.77a7.28,7.28,0,0,0,.7,5.42c1,1.65,2.93,2.45,5.23,2.86a7.71,7.71,0,0,0,6-1.16,9,9,0,0,0,3.35-5.94,6,6,0,0,0,.1-1.48.41.41,0,0,0-.4-.35c-.76-.16-2.7-.5-4.46-.81Z"/><path class="cls-49" d="M201.6,130.83c.29-.27.42-.29.88-.09,1.14.49,2.36,1.12,2.68,1.28s.5.32.43.48-.27.13-.44.06a4.64,4.64,0,0,0-1.14-.27,3.12,3.12,0,0,0-3.39,2.06,2.75,2.75,0,0,0,1.17,3.81c1,.44,2.11.55,4.21-.6l1.16-.63c2.78-1.52,4.57-1.68,6.26-.95,2.29,1,3.1,3.61,1.86,6.5a10.88,10.88,0,0,1-1.55,2.62c-.12.17-.23.25-.38.18s-.84-.46-2.46-1.16c-.46-.2-.6-.33-.53-.5s.22-.15.46,0a2.74,2.74,0,0,0,1.61.05,2.87,2.87,0,0,0,2-1.83c.66-1.54.17-2.87-1.08-3.41-1-.41-1.89-.25-4,.91l-.69.39c-3,1.7-4.81,2-6.78,1.12a4.57,4.57,0,0,1-2.78-3.52,6.55,6.55,0,0,1,.58-3.68,7.84,7.84,0,0,1,1.86-2.81"/></g><g class="cls-50"><rect class="cls-51" x="185.62" y="179.18" width="66.97" height="39.89"/></g><g class="cls-2"><path class="cls-52" d="M185.71,201.18c4.73-4.54,19.3-7.83,25.82-10a131.43,131.43,0,0,0-17.51-8Z"/></g><g class="cls-53"><rect class="cls-54" x="2.52" y="179.64" width="66.97" height="39.98"/></g><g class="cls-2"><path class="cls-52" d="M69.44,201.72c-4.73-4.54-19.21-7.69-25.74-9.86A141.67,141.67,0,0,1,61.34,184Z"/></g><g class="cls-55"><rect class="cls-56" x="33.47" y="142.76" width="188.63" height="49.41"/></g><g class="cls-57"><rect class="cls-58" y="141.85" width="255.13" height="80.4"/></g><g class="cls-2"><path class="cls-49" d="M56,164.23c-.53-.71-.94-1.14-1.31-1.26a2,2,0,0,0-.92.09c-.22.07-.35.1-.41-.08s.11-.25.41-.35c1.12-.38,2.32-.71,2.51-.77s1.12-.45,2.36-.87c.3-.1.47-.09.52,0s-.11.25-.32.32a1.18,1.18,0,0,0-.51.27c-.16.15-.16.31-.08.55A14.47,14.47,0,0,0,59.36,164c.84,1.3,5,7.14,5.82,8.21l.06,0,.41-12.6c0-.67.1-.9.28-1s.45.21,1,.8l8.1,9.31.06,0c-.1-1.57-.29-7.82-.38-10.59a4.82,4.82,0,0,0-.2-1.32c-.11-.35-.41-.58-1.25-.3-.21.07-.39.06-.43-.07s.11-.25.43-.36c1.14-.38,2.06-.62,2.26-.68s1.05-.43,1.76-.66c.24-.08.4-.09.45,0s0,.25-.23.32a2.52,2.52,0,0,0-.72.36c-.45.37-.4,1.3-.44,2.68-.08,3,0,10.63,0,14.21,0,.83,0,1.13-.29,1.22s-.43-.14-1-.83l-8.09-9.26h0c0,1.23-.34,9.8-.6,12.09-.11,1-.13,1.32-.39,1.4s-.38-.13-.76-.63Z"/><path class="cls-49" d="M90,158.81c-.69-3.38-.82-4-1-4.7s-.5-1.08-1-1.09a3.3,3.3,0,0,0-.82.08c-.22,0-.36,0-.4-.15s.14-.21.5-.29c.85-.17,2.26-.39,2.9-.52s1.85-.45,2.7-.62c.29-.06.47,0,.5.08s-.09.25-.31.3a4,4,0,0,0-.65.2c-.58.23-.68.65-.56,1.43s.23,1.34.92,4.72l.8,3.91c.44,2.15.8,3.91,1.08,4.85.19.59.43,1,1.11.91a10,10,0,0,0,1.15-.14c.25,0,.37,0,.39.11s-.13.26-.38.3c-1.46.3-2.88.52-3.48.64s-1.9.46-2.78.64c-.29.06-.46,0-.49-.13s.05-.2.32-.25a3.88,3.88,0,0,0,.78-.25c.43-.18.48-.59.42-1.25-.08-1-.44-2.71-.88-4.86Z"/><path class="cls-49" d="M109.25,163.17c.18,1.76.52,2.33,1,2.45a3.49,3.49,0,0,0,1.19.07c.25,0,.39,0,.4.15s-.19.24-.5.27c-1.47.11-2.38.11-2.81.15-.2,0-1.26.17-2.44.26-.29,0-.5,0-.51-.19s.12-.19.35-.21a3.85,3.85,0,0,0,1-.19c.58-.23.61-.89.49-2.86l-.82-13.4c0-.45,0-.77.23-.79s.47.26.89.63,4,3.69,7.56,6.72c1.65,1.42,5,4.44,5.37,4.77h.11l-1-10.13c-.13-1.38-.36-1.79-.92-2a3.71,3.71,0,0,0-1.21,0c-.27,0-.37,0-.38-.18s.23-.22.57-.25c1.18-.09,2.27-.1,2.74-.14.25,0,1.1-.15,2.21-.24.29,0,.52,0,.54.16s-.12.21-.39.23a2.39,2.39,0,0,0-.67.12c-.62.23-.76.72-.69,2l.85,14.28c0,.5,0,.71-.24.72a1.38,1.38,0,0,1-.81-.44c-1.53-1.25-4.65-4-7.18-6.13s-5.38-4.89-5.82-5.29h-.06Z"/><path class="cls-49" d="M137.3,162.42c-.11,1.76.13,2.38.57,2.58a3.75,3.75,0,0,0,1.16.26c.25,0,.38.08.37.22s-.22.2-.54.18c-1.47-.13-2.36-.27-2.79-.31-.2,0-1.27,0-2.44-.14-.29,0-.49-.07-.48-.27s.15-.17.38-.15a3.8,3.8,0,0,0,1,0c.6-.13.75-.77.94-2.74l1.37-13.35c0-.45.13-.76.36-.74s.43.33.77.77,3.36,4.3,6.37,7.86c1.4,1.67,4.17,5.19,4.52,5.58H149l.66-10.16c.1-1.38-.07-1.83-.59-2.1a3.59,3.59,0,0,0-1.18-.24c-.27,0-.36-.1-.35-.23s.27-.18.61-.15c1.17.1,2.25.27,2.73.31.25,0,1.11,0,2.22.12.29,0,.51.07.5.25s-.15.19-.42.17a2.53,2.53,0,0,0-.69,0c-.65.13-.87.59-1,1.85L150,166.19c0,.5-.16.69-.35.68s-.5-.3-.73-.57c-1.31-1.48-3.94-4.69-6.08-7.22s-4.51-5.69-4.88-6.16h-.07Z"/><path class="cls-49" d="M165.42,158.61c.76-3.36.9-4,1-4.69s0-1.16-.67-1.47a4.17,4.17,0,0,0-.85-.27c-.25-.05-.37-.13-.33-.28s.2-.17.53-.09l1.79.43,1.38.36c.71.16,5.11,1.15,5.54,1.22a9.2,9.2,0,0,0,1,.08,2,2,0,0,1,.37,0c.11,0,.11.12.09.23s-.2.4-.5,1.4c-.07.22-.33,1.18-.44,1.44s-.12.23-.28.19-.17-.16-.13-.36a2.38,2.38,0,0,0,0-.83c-.07-.43-.23-.75-1.31-1.13-.37-.13-2.68-.69-3.12-.79-.11,0-.17,0-.21.19l-1.26,5.59c0,.16,0,.25.1.28.49.11,3,.68,3.55.75a1.59,1.59,0,0,0,1.13-.09c.2-.14.31-.23.42-.21s.14.08.12.21-.2.47-.54,1.58c-.12.44-.39,1.31-.42,1.46s-.1.42-.3.38a.18.18,0,0,1-.15-.24,6.59,6.59,0,0,0,.09-.82c0-.47-.25-.87-1-1.14-.41-.14-2.6-.65-3.13-.77-.11,0-.15.06-.18.19l-.39,1.74c-.17.75-.65,2.79-.77,3.43-.3,1.53,0,1.95,2.23,2.45a5.75,5.75,0,0,0,2.14.2c.63-.13,1-.54,1.36-1.41.1-.23.16-.31.32-.28s.14.22.09.44a17,17,0,0,1-.84,2.39c-.28.54-.48.5-1.32.31-1.66-.37-2.87-.69-3.81-.92s-1.62-.43-2.29-.58c-.24-.05-.73-.16-1.26-.26s-1.09-.2-1.54-.3c-.29-.07-.43-.17-.39-.32s.13-.16.39-.1a3.72,3.72,0,0,0,.82.09c.46,0,.68-.45.92-1.07.32-.9.71-2.65,1.17-4.69Z"/><path class="cls-49" d="M186.42,164.16c1.16-3.24,1.37-3.84,1.57-4.54s.17-1.14-.49-1.54a4.46,4.46,0,0,0-.81-.36c-.23-.08-.35-.17-.29-.32s.22-.14.54,0c1.13.4,2.45.95,2.9,1.11.73.26,2.37.77,3,1a7.23,7.23,0,0,1,3.6,2.32,3.92,3.92,0,0,1,.41,3.45c-.56,1.58-1.74,2.79-4.52,3.77,1,3.07,1.84,5.5,2.63,7.27a4.49,4.49,0,0,0,1.88,2.3,3.4,3.4,0,0,0,.57.28c.17.06.23.15.19.26s-.22.16-.48.07l-2-.72a4.6,4.6,0,0,1-2.14-1.22c-.74-.82-1.2-2.11-1.81-4.18-.44-1.48-.9-3.28-1.06-3.7a.47.47,0,0,0-.33-.29l-1.84-.71a.16.16,0,0,0-.23.11l-.11.3c-.71,2-1.31,3.67-1.52,4.61-.15.64-.19,1.15.42,1.47a10.2,10.2,0,0,0,1,.46c.17.06.23.15.2.26s-.22.16-.5.06c-1.24-.44-2.8-1.07-3.12-1.18s-1.77-.56-2.63-.86c-.28-.1-.4-.22-.35-.37s.15-.14.4,0a3.78,3.78,0,0,0,.8.19c.45.07.73-.37,1-1,.42-.86,1-2.54,1.73-4.51Zm1.92,2.59c-.08.24-.07.33.05.45a5.81,5.81,0,0,0,1.55.79,2.27,2.27,0,0,0,1.64.18,4,4,0,0,0,2.4-2.75c1.08-3-.61-4.62-1.87-5.07A4.76,4.76,0,0,0,191,160c-.17,0-.24.06-.3.23Z"/><polygon class="cls-49" points="218.05 196.11 217.09 198.77 216.14 196.11 215.07 196.11 215.07 199.84 215.76 199.84 215.76 196.82 216.8 199.84 217.4 199.84 218.43 196.82 218.43 199.84 219.12 199.84 219.12 196.11 218.05 196.11"/><polygon class="cls-49" points="211.26 196.73 212.48 196.73 212.48 199.84 213.22 199.84 213.22 196.73 214.44 196.73 214.44 196.11 211.26 196.11 211.26 196.73"/><path class="cls-49" d="M207.45,199.9h0l0,0a1,1,0,0,1-.35.57.94.94,0,0,1-.62.2,1,1,0,0,1-.89-.42,1.76,1.76,0,0,1-.31-1.08,1.83,1.83,0,0,1,.2-.83,1,1,0,0,1,1-.59,1,1,0,0,1,.71.24.92.92,0,0,1,.28.59v.06h.72v-.08a1.5,1.5,0,0,0-.82-1.29,2.14,2.14,0,0,0-1-.21,1.74,1.74,0,0,0-1.38.62,2.26,2.26,0,0,0-.53,1.52,2.11,2.11,0,0,0,.59,1.56,1.89,1.89,0,0,0,1.41.59,1.74,1.74,0,0,0,1.12-.37,1.64,1.64,0,0,0,.6-1.06v-.08h-.67Z"/><path class="cls-49" d="M206.3,195.67a3.5,3.5,0,0,0-2.56,1.05,3.46,3.46,0,0,0-1.06,2.55,3.63,3.63,0,1,0,3.63-3.61m0,6.61a2.85,2.85,0,0,1-2.11-.88,3,3,0,0,1,0-4.24,2.87,2.87,0,0,1,2.11-.88,2.84,2.84,0,0,1,2.1.88,3,3,0,0,1,0,4.24,2.86,2.86,0,0,1-2.1.88"/></g><text class="cls-59" transform="matrix(0.95, 0.31, -0.31, 0.95, 90.48, 193.67)">2</text><text class="cls-60" transform="translate(109.78 199.3) rotate(6.2)">0</text><text class="cls-61" transform="matrix(1, -0.09, 0.09, 1, 129.84, 201)">2</text><text class="cls-62" transform="translate(149.61 198.44) rotate(-17.19)">0</text></g></g></g></svg>